<svg width="154" height="32" viewBox="0 0 154 32" fill="none" xmlns="http://www.w3.org/2000/svg">
<path d="M13 31.36C9.8 31.36 7.26667 30.9467 5.4 30.12C3.56 29.2933 2.24 28.2133 1.44 26.88C0.64 25.5467 0.24 24.1067 0.24 22.56C0.24 20.2133 1.06667 18.3067 2.72 16.84C4.37333 15.3733 7.01333 14.6267 10.64 14.6L19.12 14.52V12.4H16.92V13.48C14.2 13.5867 11.52 13.6933 8.88 13.8C6.24 13.9067 3.61333 13.8667 1 13.68C0.333333 9.52 0.4 5.49333 1.2 1.6C1.97333 1.6 2.90667 1.61333 4 1.64C5.12 1.66667 6.29333 1.70667 7.52 1.76C8.77333 1.78667 10 1.81333 11.2 1.84C12.4 1.86667 13.4667 1.89333 14.4 1.92C14.0533 2.72 13.8533 3.52 13.8 4.32C13.7733 5.12 13.8933 5.89333 14.16 6.64C14.2933 4.42666 15.1333 2.89333 16.68 2.04C18.2267 1.18667 20.4133 0.76 23.24 0.76C26.8933 0.76 29.6933 1.29333 31.64 2.36C33.5867 3.4 34.88 4.96 35.52 7.04C35.84 8.02667 35.9733 9.09333 35.92 10.24C35.8933 11.36 35.8133 12.4533 35.68 13.52C35.5467 14.5867 35.48 15.5467 35.48 16.4C35.48 18.0267 35.7333 19.1867 36.24 19.88C36.7733 20.5467 37.3333 20.9867 37.92 21.2C38.16 21.9733 38.2933 22.9467 38.32 24.12C38.3733 25.2933 38.3467 26.4667 38.24 27.64C38.1333 28.8133 37.9467 29.8267 37.68 30.68C36.5067 30.9467 35.28 31.12 34 31.2C32.72 31.3067 31.68 31.36 30.88 31.36C28.8533 31.36 27.2667 31.12 26.12 30.64C24.9733 30.16 24.4 29.28 24.4 28C24.4 27.5467 24.48 27.0667 24.64 26.56C24.8267 26.0533 25.04 25.5067 25.28 24.92L24.24 24.4C23.76 25.5733 23.0933 26.6933 22.24 27.76C21.4133 28.8267 20.2533 29.6933 18.76 30.36C17.2933 31.0267 15.3733 31.36 13 31.36ZM16.92 19.64H19.12V17.12H16.92V19.64ZM48.835 30.92C46.5417 30.92 44.675 30.6133 43.235 30C41.795 29.3867 40.7683 28.1333 40.155 26.24C39.8083 25.12 39.635 24.0267 39.635 22.96C39.6617 21.8933 39.7417 20.8267 39.875 19.76C40.0083 18.6933 40.075 17.6133 40.075 16.52C40.075 15.16 39.9283 14.1067 39.635 13.36C39.3683 12.5867 39.0617 12.04 38.715 11.72C38.3683 11.4 38.0617 11.2267 37.795 11.2C37.5283 10.32 37.3417 9.28 37.235 8.08C37.155 6.85333 37.1683 5.64 37.275 4.44C37.4083 3.24 37.635 2.25333 37.955 1.48C39.2083 1.64 40.6217 1.77333 42.195 1.88C43.7683 1.96 45.3817 2 47.035 2C49.0083 2 50.8217 1.93333 52.475 1.8C54.155 1.66667 55.4883 1.54667 56.475 1.44V16.84H57.915V11.32C57.755 10.3867 57.6483 9.28 57.595 8C57.5683 6.72 57.595 5.48 57.675 4.28C57.755 3.08 57.8883 2.13333 58.075 1.44C58.715 1.49333 59.4083 1.57333 60.155 1.68C60.9017 1.78667 61.8217 1.88 62.915 1.96C64.0083 2.01333 65.3683 2.04 66.995 2.04C68.995 2.04 70.715 1.97333 72.155 1.84C73.595 1.70666 74.5683 1.58666 75.075 1.48C75.315 2.22666 75.475 2.94666 75.555 3.64C75.635 4.30667 75.675 4.97333 75.675 5.64C75.675 6.89333 75.5417 8.10667 75.275 9.28C75.035 10.4267 74.7817 11.5733 74.515 12.72C74.275 13.84 74.155 15 74.155 16.2C74.155 17.3467 74.275 18.2667 74.515 18.96C74.7817 19.6533 75.1017 20.1733 75.475 20.52C75.875 20.84 76.2617 21.08 76.635 21.24C76.8217 21.7733 76.9417 22.4667 76.995 23.32C77.075 24.1467 77.1017 25.0267 77.075 25.96C77.075 26.8933 77.0083 27.7867 76.875 28.64C76.7417 29.4667 76.5683 30.1467 76.355 30.68C75.2883 30.5467 74.1417 30.4133 72.915 30.28C71.6883 30.1733 70.3683 30.12 68.955 30.12C67.0617 30.12 65.5017 30.1333 64.275 30.16C63.0483 30.1867 62.035 30.2133 61.235 30.24C60.435 30.2933 59.715 30.3467 59.075 30.4C59.6083 29.76 60.0483 28.8533 60.395 27.68C60.7417 26.5067 60.8617 25.2933 60.755 24.04C60.4883 25.2933 59.875 26.4533 58.915 27.52C57.9817 28.56 56.675 29.3867 54.995 30C53.3417 30.6133 51.2883 30.92 48.835 30.92ZM78.4619 30.68C78.1952 29.8267 77.9952 28.8133 77.8619 27.64C77.7552 26.4667 77.7285 25.2933 77.7819 24.12C77.8352 22.9467 77.9685 21.9733 78.1819 21.2C78.7952 21.04 79.3552 20.6267 79.8619 19.96C80.3685 19.2667 80.6219 18.12 80.6219 16.52C80.6219 15.16 80.4752 14.1067 80.1819 13.36C79.9152 12.5867 79.6085 12.04 79.2619 11.72C78.9152 11.4 78.6085 11.2267 78.3419 11.2C78.0752 10.32 77.8885 9.28 77.7819 8.08C77.7019 6.85333 77.7152 5.64 77.8219 4.44C77.9552 3.24 78.1819 2.25333 78.5019 1.48C79.7552 1.64 81.1685 1.77333 82.7419 1.88C84.3152 1.96 85.9285 2 87.5819 2C89.2352 2 90.8619 1.98666 92.4619 1.96C94.0619 1.90667 95.3819 1.85333 96.4219 1.8C96.1552 2.09333 95.8752 2.53333 95.5819 3.12C95.2885 3.68 95.0219 4.29333 94.7819 4.96C94.5685 5.62667 94.4085 6.26667 94.3019 6.88C94.1952 7.46667 94.1819 7.92 94.2619 8.24C94.7152 6.96 95.4219 5.76 96.3819 4.64C97.3419 3.52 98.5819 2.61333 100.102 1.92C101.649 1.2 103.475 0.839999 105.582 0.839999C108.302 0.839999 110.462 1.6 112.062 3.12C113.662 4.64 114.462 7.02667 114.462 10.28C114.462 13.4267 113.542 15.8933 111.702 17.68C109.889 19.4667 107.435 20.36 104.342 20.36C102.395 20.36 100.835 19.8933 99.6619 18.96C98.5152 18 97.9552 16.64 97.9819 14.88H96.8219C96.7952 16.3733 97.0619 17.6133 97.6219 18.6C98.2085 19.5867 99.0752 20.4267 100.222 21.12C100.409 21.68 100.529 22.3867 100.582 23.24C100.662 24.0933 100.689 25 100.662 25.96C100.635 26.8933 100.555 27.7867 100.422 28.64C100.289 29.4667 100.115 30.1467 99.9019 30.68C99.0219 30.6 97.9019 30.5067 96.5419 30.4C95.1819 30.32 93.7419 30.24 92.2219 30.16C90.7019 30.1067 89.2485 30.08 87.8619 30.08C85.8619 30.08 84.0619 30.1467 82.4619 30.28C80.8885 30.4133 79.5552 30.5467 78.4619 30.68ZM127.766 31.36C124.566 31.36 122.032 30.9467 120.166 30.12C118.326 29.2933 117.006 28.2133 116.206 26.88C115.406 25.5467 115.006 24.1067 115.006 22.56C115.006 20.2133 115.832 18.3067 117.486 16.84C119.139 15.3733 121.779 14.6267 125.406 14.6L133.886 14.52V12.4H131.686V13.48C128.966 13.5867 126.286 13.6933 123.646 13.8C121.006 13.9067 118.379 13.8667 115.766 13.68C115.099 9.52 115.166 5.49333 115.966 1.6C116.739 1.6 117.672 1.61333 118.766 1.64C119.886 1.66667 121.059 1.70667 122.286 1.76C123.539 1.78667 124.766 1.81333 125.966 1.84C127.166 1.86667 128.232 1.89333 129.166 1.92C128.819 2.72 128.619 3.52 128.566 4.32C128.539 5.12 128.659 5.89333 128.926 6.64C129.059 4.42666 129.899 2.89333 131.446 2.04C132.992 1.18667 135.179 0.76 138.006 0.76C141.659 0.76 144.459 1.29333 146.406 2.36C148.352 3.4 149.646 4.96 150.286 7.04C150.606 8.02667 150.739 9.09333 150.686 10.24C150.659 11.36 150.579 12.4533 150.446 13.52C150.312 14.5867 150.246 15.5467 150.246 16.4C150.246 18.0267 150.499 19.1867 151.006 19.88C151.539 20.5467 152.099 20.9867 152.686 21.2C152.926 21.9733 153.059 22.9467 153.086 24.12C153.139 25.2933 153.112 26.4667 153.006 27.64C152.899 28.8133 152.712 29.8267 152.446 30.68C151.272 30.9467 150.046 31.12 148.766 31.2C147.486 31.3067 146.446 31.36 145.646 31.36C143.619 31.36 142.032 31.12 140.886 30.64C139.739 30.16 139.166 29.28 139.166 28C139.166 27.5467 139.246 27.0667 139.406 26.56C139.592 26.0533 139.806 25.5067 140.046 24.92L139.006 24.4C138.526 25.5733 137.859 26.6933 137.006 27.76C136.179 28.8267 135.019 29.6933 133.526 30.36C132.059 31.0267 130.139 31.36 127.766 31.36ZM131.686 19.64H133.886V17.12H131.686V19.64Z" fill="#F2F2F2"/>
</svg>
